<svg xmlns="http://www.w3.org/2000/svg" width="264.814" height="66.69" viewBox="0 0 264.814 66.69"><defs><style>.a,.h{fill:#5e5c6a;}.b{fill:#bebdc3;}.c{opacity:0.5;}.d{opacity:0.6;}.e{opacity:0.8;}.f{fill:#085769;}.g{fill:#8e8e98;}.h{opacity:0.9;}</style></defs><g transform="translate(-163.59 -69.03)"><path class="a" d="M177.35,107.09l4.67-38.06H172l-4.76,38.53,10.11-.47"/><path class="a" d="M166.21,115.87l-2.62,20.85h9.95l2.69-20.47-10.02-.38" transform="translate(0 -1)"/><path class="a" d="M180.75,87.7m-1.42,11.362h4.82a12.782,12.782,0,0,0,3.06-.332,5.671,5.671,0,0,0,2.33-1.124,5.074,5.074,0,0,0,1.5-2.132,9.025,9.025,0,0,0,.53-3.3,4.124,4.124,0,0,0-1.31-3.461,6.687,6.687,0,0,0-4.07-.978h-5.44l.85-7.343h5.52a26.83,26.83,0,0,1,6.72.724,12.773,12.773,0,0,1,4.58,2.073,8,8,0,0,1,2.59,3.227,10.365,10.365,0,0,1,.82,4.185,12.59,12.59,0,0,1-.48,3.491,9.753,9.753,0,0,1-1.51,3.1,11.34,11.34,0,0,1-2.66,2.572,16.272,16.272,0,0,1-3.94,1.956,10.277,10.277,0,0,1,5.38,3.012,7.709,7.709,0,0,1,1.73,5.153,13.735,13.735,0,0,1-1.19,5.691,13.269,13.269,0,0,1-3.45,4.615,16.665,16.665,0,0,1-5.49,3.1,22.048,22.048,0,0,1-7.31,1.134h-6.68l.87-7.373h6.62a8.162,8.162,0,0,0,3.12-.528,5.385,5.385,0,0,0,2.06-1.476,6.079,6.079,0,0,0,1.14-2.229,10.118,10.118,0,0,0,.35-2.777,5.8,5.8,0,0,0-.26-1.819,3.014,3.014,0,0,0-.89-1.369,4.6,4.6,0,0,0-1.67-.88,9.039,9.039,0,0,0-2.55-.313h-6.5l.81-6.532"/><path class="b" d="M425.35,89.589a3.817,3.817,0,0,1-1,1.066,2.2,2.2,0,0,1-1.29.352,3.264,3.264,0,0,1-1.5-.43l-1.81-.978a14.9,14.9,0,0,0-2.31-.978,9.546,9.546,0,0,0-3-.43,6.515,6.515,0,0,0-4.28,1.193,4.035,4.035,0,0,0-1.41,3.237,2.956,2.956,0,0,0,.85,2.161,7.229,7.229,0,0,0,2.22,1.476,25.984,25.984,0,0,0,3.15,1.144c1.17.342,2.38.724,3.61,1.144a34.991,34.991,0,0,1,3.61,1.5,12,12,0,0,1,3.14,2.19,10.18,10.18,0,0,1,2.23,3.237,11.34,11.34,0,0,1,.84,4.6,14.591,14.591,0,0,1-1.06,5.583,13,13,0,0,1-3.06,4.537,14.263,14.263,0,0,1-5,3.041,18.868,18.868,0,0,1-6.7,1.115,21.274,21.274,0,0,1-4.18-.42,25.517,25.517,0,0,1-4.13-1.164,23.5,23.5,0,0,1-3.75-1.789,15.593,15.593,0,0,1-3-2.308l3-4.664a2.978,2.978,0,0,1,.95-.841,2.492,2.492,0,0,1,1.29-.342,3.546,3.546,0,0,1,1.83.557c.61.381,1.31.792,2.08,1.242a16.477,16.477,0,0,0,2.68,1.242,10.288,10.288,0,0,0,3.57.567,6.882,6.882,0,0,0,4.32-1.2,4.486,4.486,0,0,0,1.54-3.794,3.509,3.509,0,0,0-.85-2.454,6.347,6.347,0,0,0-2.22-1.564,19.9,19.9,0,0,0-3.13-1.1c-1.17-.313-2.37-.665-3.59-1.046a26.951,26.951,0,0,1-3.6-1.428,11.415,11.415,0,0,1-3.13-2.21,10.278,10.278,0,0,1-2.22-3.432,13.223,13.223,0,0,1-.85-5.065,11.741,11.741,0,0,1,1-4.733,12.145,12.145,0,0,1,2.93-4.107,14.5,14.5,0,0,1,4.75-2.933,17.99,17.99,0,0,1,6.44-1.076,23.714,23.714,0,0,1,3.94.313,20.533,20.533,0,0,1,6.86,2.357,15.479,15.479,0,0,1,2.68,1.956Z" transform="translate(0 0)"/><g class="c" transform="translate(360.12 79.869)"><path class="a" d="M372.78,107.52h10.44V88.65h12.67V80.37H360.12v8.28h12.66Z" transform="translate(-360.12 -80.37)"/><path class="a" d="M372.78,116v9.41h10.44v-9.86C379.85,115.52,376.36,116,372.78,116Z" transform="translate(-360.12 -80.37)"/></g><g class="d" transform="translate(344.33 79.869)"><path class="a" d="M354.83,107.54V80.37h-10.5v27.18Z" transform="translate(-344.33 -80.37)"/><path class="a" d="M344.33,116v9.42h10.5V116Z" transform="translate(-344.33 -80.37)"/></g><g class="e" transform="translate(251.69 79.87)"><path class="a" d="M281.91,107.57l9.07-.06V80.37h-9.2v23.82c0,.72,0,1.48.06,2.3C281.86,106.84,281.88,107.2,281.91,107.57Z" transform="translate(-251.69 -80.37)"/><path class="a" d="M260.68,96.8l8.58,10.86,11.66-.09L260.65,82a7.48,7.48,0,0,0-.78-.84,3,3,0,0,0-.71-.48,2.88,2.88,0,0,0-.83-.23,9.119,9.119,0,0,0-1.14-.06h-5.5v45h9.2V99.14C260.89,98.39,260.76,97.61,260.68,96.8Z" transform="translate(-251.69 -80.37)"/><path class="a" d="M275.78,115.9l6.12,7.75a5,5,0,0,0,1.62,1.34,4.69,4.69,0,0,0,2,.39H291V116C287.07,116,281.06,115.94,275.78,115.9Z" transform="translate(-251.69 -80.37)"/></g><path class="f" d="M408.74,111.49l-.16-.08-.78-.25a69.449,69.449,0,0,0-19.8-2.43,8.748,8.748,0,0,1-4.058-1,4.44,4.44,0,0,0-2-.451q-6.72-.08-13.44,0a12.2,12.2,0,0,0-1.85.51,2.69,2.69,0,0,1-1.29-.1c-.56-.19-1.07-1.2-1.79-1.57v.77c-9,.28-35.71,1.84-40.21,2V109l35.56-1.24a.77.77,0,0,1,.77.76c0,.67,0,2.48-1.17,2.53-11.85.5-23.69,1.06-35.54,1.61-4.45.21-68.69.47-73.14.7v.16c16.41.2,92.61.39,109.06.59a.76.76,0,0,1,.75.76v.2a1,1,0,0,1-1,1l-11.55.2v.3c2.34,0,11.48.33,16.43.28v.2c.78-.43,1.3-1.33,1.88-1.52a2.4,2.4,0,0,1,1.27.05c.51.13,1,.54,1.49.55h12.46a7.74,7.74,0,0,0,4.34-1.06,4.74,4.74,0,0,1,2.09-.51c4.6-.35,9.22-.51,13.79-1a75.242,75.242,0,0,0,7.8-1.6.26.26,0,0,0,.09-.47Zm-72,2.08v-.3l23.17-.7a.73.73,0,0,1,.74.57l.09.43Zm25.73,2.19h-1a.83.83,0,0,1-.82-.77l-.06-.73.78-.17v-2.61a.87.87,0,0,0-.49-.76c-.28-.15-.31-1.62-.21-2.38a.82.82,0,0,1,.72-.72,7.851,7.851,0,0,1,.9-.07.82.82,0,0,1,.8,1.08,10.42,10.42,0,0,0,.17,6,.83.83,0,0,1-.83,1.13ZM381.35,110a56.691,56.691,0,0,0-13,0c-1.46.16-1.83-.2-1.46-1.28H382.7C383,109.73,382.79,110.18,381.35,110Zm4.14.85c-.9-.63-2.57-.06-2.37-2.23,1.06.62,2.76.11,2.37,2.24Zm4.69,0H386c-.32-.86-.25-1.38.87-1.35s2.17,0,3.34,0Zm14.59.41c-3.56-.11-7.11-.24-10.67-.33-.69,0-1.38.08-2.07.12s-1.24,0-1-.8a1.28,1.28,0,0,1,1-.7c3,.26,6,.56,8.93.92,1.3.16,2.58.47,3.87.71Z" transform="translate(0 -0.653)"/><path class="g" d="M308.28,107.49a20.881,20.881,0,0,1-.49-4.63,18.21,18.21,0,0,1,.89-5.89,13.2,13.2,0,0,1,2.55-4.52,11.31,11.31,0,0,1,4-2.92,13,13,0,0,1,5.28-1,22.4,22.4,0,0,1,2.85.16,15.351,15.351,0,0,1,2.41.49A14.54,14.54,0,0,1,328,90c.74.36,1.51.79,2.34,1.28a3.19,3.19,0,0,0,2.42.56,2.89,2.89,0,0,0,1.84-1.33l3-4.6a20.5,20.5,0,0,0-3.09-2.41,21.649,21.649,0,0,0-3.82-1.92,26.69,26.69,0,0,0-4.55-1.26,28.6,28.6,0,0,0-5.29-.47,27.14,27.14,0,0,0-9.83,1.7,21.72,21.72,0,0,0-7.51,4.76,20.84,20.84,0,0,0-4.77,7.28,24.749,24.749,0,0,0-1.67,9.25,25.289,25.289,0,0,0,.42,4.65Z" transform="translate(0 -0.27)"/><path class="g" d="M321.32,107.77a18.67,18.67,0,0,1,3.83,1,8.2,8.2,0,0,1,1.49.83l1.23.94c.78.65.92,1.33,0,2v3.88a19.758,19.758,0,0,1-3,1,14.249,14.249,0,0,1-3.41.37,14.85,14.85,0,0,1-5.57-1,12.081,12.081,0,0,1-1.76-.89L301,116a21.059,21.059,0,0,0,2.85,3.34,23.45,23.45,0,0,0,7.8,4.82,28.17,28.17,0,0,0,10.12,1.74,29.06,29.06,0,0,0,8.17-1.14,23.59,23.59,0,0,0,7.37-3.68v-19h-16Z" transform="translate(0 -0.753)"/><path class="h" d="M230.71,80.37H220l-17.42,44h8.16a3.391,3.391,0,0,0,2.17-.684,3.572,3.572,0,0,0,1.22-1.525l2.66-7.666h.26l-.06-.851a33.96,33.96,0,0,1,0-5.241l.06-.694a.432.432,0,0,1,.31-.4c.34-.059.69-.1,1.81-.215.13,0-.32-.156.23-.205l3.91-11.332c.31-.763.64-1.672,1-2.718s.68-2.19,1-3.412c.35,1.2.7,2.327,1,3.364a23.666,23.666,0,0,0,1,2.708l4.17,12.046h-3.86c.94.176,1.87.381,2.81.636a17.945,17.945,0,0,1,3.8,1.7c1.18.655,1.39,1.34,0,2.024a23.219,23.219,0,0,1-5.75,2.22l-1.83.372h7.21l2.65,7.666a3.926,3.926,0,0,0,1.27,1.584,3.537,3.537,0,0,0,2.19.626h8.1Z" transform="translate(0 0)"/></g></svg>